<svg xmlns="http://www.w3.org/2000/svg" width="1440" height="900" viewBox="0 0 1440 900" role="img" aria-labelledby="title desc">
  <title id="title">Skill Radar Dashboard v1.3</title>
  <desc id="desc">深色 Skill 情报仪表盘，包含价值雷达、社区信号、历史趋势、更新检测和多维筛选。</desc>
  <defs>
    <linearGradient id="bg" x1="0" y1="0" x2="1" y2="1"><stop stop-color="#071018"/><stop offset="1" stop-color="#0a1823"/></linearGradient>
    <linearGradient id="brand" x1="0" y1="0" x2="1" y2="1"><stop stop-color="#31d9aa" stop-opacity=".28"/><stop offset="1" stop-color="#37a7ff" stop-opacity=".08"/></linearGradient>
    <filter id="glow"><feGaussianBlur stdDeviation="6" result="b"/><feMerge><feMergeNode in="b"/><feMergeNode in="SourceGraphic"/></feMerge></filter>
    <style>
      .panel{fill:#0d1924;stroke:#294050;stroke-opacity:.75}.muted{fill:#7890a2}.text{fill:#e8f4f9}.blue{fill:#37a7ff}.mint{fill:#31d9aa}.amber{fill:#ffb84a}.red{fill:#ff6b72}
      .label{font:600 12px 'Segoe UI','Microsoft YaHei',sans-serif}.small{font:11px 'Segoe UI','Microsoft YaHei',sans-serif}.tiny{font:9px 'Segoe UI','Microsoft YaHei',sans-serif}.num{font:700 25px 'Segoe UI',sans-serif}
    </style>
  </defs>
  <rect width="1440" height="900" fill="url(#bg)"/>
  <rect width="220" height="900" fill="#09151f"/><path d="M220 0v900" stroke="#294050"/>
  <rect x="26" y="28" width="42" height="42" rx="12" fill="url(#brand)" stroke="#31d9aa" stroke-opacity=".35"/>
  <circle cx="47" cy="49" r="13" fill="none" stroke="#31d9aa"/><circle cx="47" cy="49" r="6" fill="none" stroke="#31d9aa"/><path d="m47 49 13-8" stroke="#31d9aa"/>
  <text x="80" y="45" class="text label" letter-spacing="3">SKILL</text><text x="80" y="61" class="muted tiny" letter-spacing="4">RADAR</text>
  <rect x="18" y="105" width="184" height="42" rx="10" fill="#11283a"/><circle cx="41" cy="126" r="6" class="blue"/><text x="58" y="130" class="text small">雷达总览</text>
  <text x="29" y="179" class="muted small">⌁</text><text x="58" y="179" class="muted small">观察清单</text><rect x="168" y="164" width="24" height="20" rx="9" fill="#183145"/><text x="180" y="178" text-anchor="middle" class="blue tiny">12</text>
  <text x="29" y="222" class="muted small">◇</text><text x="58" y="222" class="muted small">开发机会</text>
  <text x="26" y="282" class="muted tiny" letter-spacing="2">监测范围</text>
  <g class="small muted"><text x="28" y="316">☑  官方目录</text><text x="28" y="349">☑  社区目录</text><text x="28" y="382">☑  GitHub</text><text x="28" y="415">☑  社区信号</text></g>
  <rect x="18" y="770" width="184" height="72" rx="12" class="panel"/><circle cx="37" cy="793" r="5" class="mint" filter="url(#glow)"/><text x="51" y="797" class="text small">联网模式</text><text x="28" y="822" class="muted tiny">每日刷新 · 安全安装 · 通用导出</text>
  <text x="110" y="872" text-anchor="middle" class="muted tiny">Skill Radar · v1.3</text>

  <text x="260" y="52" class="blue tiny" letter-spacing="2">INTERNET SKILL INTELLIGENCE</text>
  <text x="260" y="88" class="text" style="font:700 28px 'Segoe UI','Microsoft YaHei',sans-serif">今天，哪些 Skill 值得关注？</text>
  <text x="260" y="112" class="muted small">把使用价值、GitHub / X 热度、版本变化和安全风险放在同一张图上。</text>
  <rect x="1115" y="51" width="125" height="38" rx="10" class="panel"/><text x="1178" y="75" text-anchor="middle" class="text small">⇩ 导出快照</text>
  <rect x="1252" y="51" width="154" height="38" rx="10" fill="#1686d8"/><text x="1329" y="75" text-anchor="middle" class="text small">↻ 立即联网更新</text>

  <g transform="translate(260 140)">
    <rect width="268" height="94" rx="15" class="panel"/><text x="22" y="28" class="muted tiny">追踪 SKILL</text><text x="22" y="65" class="text num">50</text><polyline points="178,68 193,58 208,62 223,42 238,48 253,27" fill="none" stroke="#37a7ff" stroke-width="2"/>
    <rect x="280" width="268" height="94" rx="15" class="panel"/><text x="302" y="28" class="muted tiny">检测到更新</text><text x="302" y="65" class="text num">6</text><text x="365" y="64" class="mint small">内容指纹变化</text>
    <rect x="560" width="268" height="94" rx="15" class="panel"/><text x="582" y="28" class="muted tiny">正在升温</text><text x="582" y="65" class="text num">12</text><text x="648" y="64" class="amber small">GitHub / X</text>
    <rect x="840" width="306" height="94" rx="15" class="panel"/><text x="862" y="28" class="muted tiny">平均价值</text><text x="862" y="65" class="text num">72</text><rect x="930" y="49" width="180" height="7" rx="4" fill="#1d3040"/><rect x="930" y="49" width="130" height="7" rx="4" class="blue"/>
  </g>

  <rect x="260" y="252" width="562" height="270" rx="16" class="panel"/><text x="282" y="280" class="blue tiny" letter-spacing="2">VALUE MAP</text><text x="282" y="305" class="text label">价值雷达</text>
  <g transform="translate(494 385)">
    <polygon points="0,-96 62,-74 96,-17 83,48 33,90 -33,90 -83,48 -96,-17 -62,-74" fill="none" stroke="#294050"/>
    <polygon points="0,-72 50,-59 77,-14 61,35 23,64 -26,70 -63,36 -67,-12 -45,-53" fill="#37a7ff" fill-opacity=".16" stroke="#37a7ff" stroke-width="2"/>
    <g stroke="#294050"><path d="M0 0V-96"/><path d="m0 0 62-74"/><path d="m0 0 96-17"/><path d="m0 0 83 48"/><path d="m0 0 33 90"/><path d="m0 0-33 90"/><path d="m0 0-83 48"/><path d="m0 0-96-17"/><path d="m0 0-62-74"/></g>
    <circle r="34" fill="#0d1924"/><text y="-4" text-anchor="middle" class="muted tiny">综合价值</text><text y="19" text-anchor="middle" class="text label">78</text>
  </g>
  <rect x="838" y="252" width="568" height="270" rx="16" class="panel"/><text x="860" y="280" class="blue tiny" letter-spacing="2">SIGNAL BOARD</text><text x="860" y="305" class="text label">信号分布</text>
  <g transform="translate(862 334)" class="small"><text class="muted">高价值候选</text><rect x="120" y="-8" width="330" height="8" rx="4" fill="#1a2c3a"/><rect x="120" y="-8" width="252" height="8" rx="4" class="blue"/><text x="475" class="text">33</text>
    <text y="42" class="muted">GitHub 升温</text><rect x="120" y="34" width="330" height="8" rx="4" fill="#1a2c3a"/><rect x="120" y="34" width="176" height="8" rx="4" class="mint"/><text x="475" y="42" class="text">21</text>
    <text y="84" class="muted">X 热度可用</text><rect x="120" y="76" width="330" height="8" rx="4" fill="#1a2c3a"/><rect x="120" y="76" width="120" height="8" rx="4" fill="#a685ff"/><text x="475" y="84" class="text">15</text>
    <rect y="111" width="500" height="64" rx="11" fill="#2a171c" stroke="#5a2d33"/><text x="18" y="137" class="red label">!  3 个高风险候选</text><text x="18" y="158" class="muted tiny">热度不会抵消权限和供应链风险。</text>
  </g>

  <rect x="260" y="538" width="1146" height="236" rx="16" class="panel"/><text x="282" y="567" class="blue tiny" letter-spacing="2">TREND &amp; VERSION WATCH</text><text x="282" y="592" class="text label">趋势历史与技能更新</text><text x="1382" y="584" text-anchor="end" class="muted tiny">6 个 Skill 检测到新版本 · 最近 30 次观测</text>
  <g transform="translate(286 622)">
    <path d="M0 112H720M0 74H720M0 36H720" stroke="#294050" stroke-opacity=".7"/>
    <polyline points="0,86 95,80 190,71 285,73 380,54 475,46 570,40 665,27 720,31" fill="none" stroke="#37a7ff" stroke-width="3"/>
    <polyline points="0,101 95,100 190,104 285,96 380,99 475,94 570,96 665,89 720,92" fill="none" stroke="#ff6b72" stroke-width="2" stroke-dasharray="6 5"/>
    <g fill="#37a7ff"><circle cx="0" cy="86" r="4"/><circle cx="190" cy="71" r="4"/><circle cx="380" cy="54" r="4"/><circle cx="570" cy="40" r="4"/><circle cx="720" cy="31" r="4"/></g>
    <text y="139" class="muted tiny">06-23</text><text x="690" y="139" class="muted tiny">07-01</text>
  </g>
  <g transform="translate(1050 620)">
    <rect width="326" height="42" rx="10" fill="#11212e"/><circle cx="18" cy="21" r="4" class="mint"/><text x="32" y="18" class="text small">frontend-design</text><text x="32" y="32" class="muted tiny">rev-a49d2c18 · 今天 08:00</text><text x="292" y="25" class="blue tiny">查看 →</text>
    <rect y="50" width="326" height="42" rx="10" fill="#11212e"/><circle cx="18" cy="71" r="4" class="mint"/><text x="32" y="68" class="text small">spreadsheets</text><text x="32" y="82" class="muted tiny">rev-774bc019 · 今天 08:00</text><text x="292" y="75" class="blue tiny">查看 →</text>
    <rect y="100" width="326" height="42" rx="10" fill="#11212e"/><circle cx="18" cy="121" r="4" class="mint"/><text x="32" y="118" class="text small">claude-api</text><text x="32" y="132" class="muted tiny">rev-3d2e4f11 · 今天 08:00</text><text x="292" y="125" class="blue tiny">查看 →</text>
  </g>

  <rect x="260" y="790" width="1146" height="82" rx="16" class="panel"/>
  <text x="282" y="819" class="blue tiny" letter-spacing="2">RANKING &amp; FILTERS</text><text x="282" y="846" class="text label">价值候选榜</text>
  <g transform="translate(655 811)"><rect width="172" height="34" rx="9" fill="#09151f" stroke="#294050"/><text x="14" y="22" class="muted tiny">⌕ 搜索名称、用途、作者</text>
    <rect x="182" width="105" height="34" rx="9" fill="#09151f" stroke="#294050"/><text x="196" y="22" class="text tiny">全部领域⌄</text>
    <rect x="297" width="105" height="34" rx="9" fill="#09151f" stroke="#294050"/><text x="311" y="22" class="text tiny">全部平台⌄</text>
    <rect x="412" width="105" height="34" rx="9" fill="#09151f" stroke="#294050"/><text x="426" y="22" class="text tiny">价值区间⌄</text>
    <rect x="527" width="84" height="34" rx="9" fill="#09151f" stroke="#294050"/><text x="569" y="22" text-anchor="middle" class="muted tiny">重置</text></g>
</svg>
